<svg xmlns="http://www.w3.org/2000/svg" xmlns:xlink="http://www.w3.org/1999/xlink" viewBox="0,0,256,256" width="64px" height="64px"><g fill="#af19fa" fill-rule="nonzero" stroke="none" stroke-width="1" stroke-linecap="butt" stroke-linejoin="miter" stroke-miterlimit="10" stroke-dasharray="" stroke-dashoffset="0" font-family="none" font-weight="none" font-size="none" text-anchor="none" style="mix-blend-mode: normal"><g transform="scale(3.55556,3.55556)"><path d="M19,15c-5.514,0 -10,4.486 -10,10v22c0,5.514 4.486,10 10,10h34c5.514,0 10,-4.486 10,-10v-22c0,-5.514 -4.486,-10 -10,-10zM31,26c1.822,0 3.527,0.49852 5,1.35352c1.473,-0.855 3.178,-1.35352 5,-1.35352c5.514,0 10,4.486 10,10c0,5.514 -4.486,10 -10,10c-1.822,0 -3.527,-0.49852 -5,-1.35352c-1.473,0.855 -3.178,1.35352 -5,1.35352c-5.514,0 -10,-4.486 -10,-10c0,-5.514 4.486,-10 10,-10zM41,32c-0.274,0 -0.54273,0.02708 -0.80273,0.08008c0.515,1.204 0.80273,2.52992 0.80273,3.91992c0,1.39 -0.28773,2.71592 -0.80273,3.91992c0.26,0.053 0.52873,0.08008 0.80273,0.08008c2.206,0 4,-1.794 4,-4c0,-2.206 -1.794,-4 -4,-4z"></path></g></g></svg>